<svg width="18" height="20" viewBox="0 0 18 20" fill="none" xmlns="http://www.w3.org/2000/svg">
<path d="M2.45787 17.86C2.51882 18.52 3.06735 19 3.73778 19H14.2615C14.9319 19 15.4804 18.5 15.5414 17.86L16.7197 5.69995H1.27954L2.45787 17.86Z" fill="white" stroke="#555555" stroke-width="0.3"/>
<path d="M11.4301 1.9V2.05H11.5801H16.7201C17.3505 2.05 17.85 2.54505 17.85 3.16C17.85 3.77495 17.3505 4.27001 16.7201 4.27001H1.27991C0.649466 4.27001 0.15 3.77495 0.15 3.16C0.15 2.54505 0.649466 2.05 1.27991 2.05H6.44018H6.59018V1.9V1.26C6.59018 0.645052 7.08965 0.15 7.72009 0.15H10.3002C10.9307 0.15 11.4301 0.645052 11.4301 1.26V1.9Z" fill="white" stroke="#555555" stroke-width="0.3"/>
</svg>
